<?xml version="1.0" encoding="UTF-8" standalone="no"?>
<svg
   xmlns:dc="http://purl.org/dc/elements/1.1/"
   xmlns:cc="http://creativecommons.org/ns#"
   xmlns:rdf="http://www.w3.org/1999/02/22-rdf-syntax-ns#"
   xmlns:svg="http://www.w3.org/2000/svg"
   xmlns="http://www.w3.org/2000/svg"
   version="1.1"
   x="0px"
   y="0px"
   viewBox="0 0 980.00525 980.22729"
   enable-background="new 0 0 1000 1000"
   xml:space="preserve"
   id="svg2"
   width="980.00525"
   height="980.22729"><defs
     id="defs16" /><metadata
     id="metadata4"> Svg Vector Icons : http://www.onlinewebfonts.com/icon <rdf:RDF><cc:Work
     rdf:about=""><dc:format>image/svg+xml</dc:format><dc:type
       rdf:resource="http://purl.org/dc/dcmitype/StillImage" /><dc:title></dc:title></cc:Work></rdf:RDF></metadata><g
     id="g6"
     transform="translate(-9.9983542,-9.8864928)"
     style="fill:#c40101;fill-opacity:1"><g
       transform="matrix(0.1,0,0,-0.1,0,512)"
       id="g8"
       style="fill:#c40101;fill-opacity:1"><path
         d="M 4579.3,5003.3 C 3667.4,4924.8 2788,4587.6 2037,4026.2 1795.6,3846.1 1274.5,3325 1094.4,3083.6 -39.7,1564.4 -217.9,-433.8 632.7,-2102.5 c 463.6,-906.2 1201.2,-1653.3 2094,-2117 808.5,-421.5 1712.7,-613.1 2590.2,-549.8 1251,92 2339.2,595.8 3199.4,1480.9 684,705 1124.6,1557.6 1302.8,2521.2 260.5,1412 -115,2875.6 -1023,3984.9 -208.8,254.8 -586.2,620.7 -827.6,804.6 -977.2,735.7 -2184.2,1084.4 -3389.2,981 z m 873.6,-306.6 C 7462.6,4497.5 9119.8,2991.6 9510.6,1012.6 9932.1,-1113.9 8811.3,-3240.5 6813.1,-4104.5 4924.1,-4922.6 2707.5,-4367 1416.3,-2753.9 717,-1882.2 372.2,-841.9 408.6,273.1 c 23,685.9 164.7,1253 463.6,1867.9 220.3,452.1 515.4,864 879.4,1228 651.4,651.4 1454.1,1080.5 2356.4,1262.5 126.4,24.9 310.4,53.6 404.2,63.2 249.1,25 697.4,26.9 940.7,2 z"
         id="path10"
         style="fill:#c40101;fill-opacity:1" /><path
         d="m 4901.2,2675.5 -5.7,-356.3 -141.8,-36.4 c -477,-120.7 -800.8,-436.8 -892.8,-871.7 -80.5,-381.2 9.6,-683.9 285.5,-956 189.7,-187.7 367.8,-295 775.9,-471.3 375.5,-162.9 515.3,-241.4 657.1,-377.4 137.9,-130.3 205,-268.2 220.3,-442.5 40.2,-490.5 -402.3,-818.1 -1015.4,-749.1 -247.1,28.7 -440.6,84.3 -659,191.6 -103.4,51.7 -189.7,90 -189.7,90 -9.6,-11.5 -160.9,-440.6 -160.9,-456 0,-32.6 362.1,-191.6 547.9,-237.6 103.5,-26.8 264.4,-53.6 356.3,-61.3 l 168.6,-11.5 0,-360.2 0,-362.1 220.3,0 220.3,0 3.8,367.8 5.7,365.9 159,42.1 c 251,67.1 429.2,166.7 609.2,344.8 120.7,118.8 170.5,185.8 226.1,300.8 218.4,457.9 139.9,998.1 -195.4,1343 -174.4,178.2 -408.1,316.1 -938.8,547.9 -364,159 -551.8,291.2 -649.5,457.9 -42.1,69 -53.6,116.9 -59.4,247.1 -7.7,149.4 -3.8,168.6 51.7,283.5 105.4,210.7 281.6,321.9 570.9,354.4 270.1,28.7 582.4,-26.8 862.1,-153.3 l 155.2,-72.8 86.2,224.1 86.2,222.2 -40.2,32.6 c -107.3,84.3 -477,193.5 -735.7,218.4 l -139.9,13.4 0,341 0,342.9 -220.3,0 -220,0 -3.8,-355.9 z"
         id="path12"
         style="fill:#c40101;fill-opacity:1" /></g></g></svg>