<?xml version="1.0" encoding="UTF-8" standalone="no"?>
<svg
   xmlns:dc="http://purl.org/dc/elements/1.1/"
   xmlns:cc="http://creativecommons.org/ns#"
   xmlns:rdf="http://www.w3.org/1999/02/22-rdf-syntax-ns#"
   xmlns:svg="http://www.w3.org/2000/svg"
   xmlns="http://www.w3.org/2000/svg"
   xml:space="preserve"
   viewBox="0 0 612 333.81601"
   height="333.81601"
   width="612"
   y="0px"
   x="0px"
   id="Capa_1"
   version="1.1"><metadata
     id="metadata47"><rdf:RDF><cc:Work
         rdf:about=""><dc:format>image/svg+xml</dc:format><dc:type
           rdf:resource="http://purl.org/dc/dcmitype/StillImage" /><dc:title></dc:title></cc:Work></rdf:RDF></metadata><defs
     id="defs45" /><g
     transform="translate(0,-139.092)"
     style="fill:#ffffff;fill-opacity:1"
     id="g3"><g
       style="fill:#ffffff;fill-opacity:1"
       id="g5"><path
         style="fill:#ffffff;fill-opacity:1"
         id="path7"
         d="m 604.267,194.727 c 4.257,0 7.733,-3.644 7.733,-7.733 l 0,-40.169 c 0,-4.256 -3.283,-7.733 -7.733,-7.733 l -596.534,0 C 3.477,139.092 0,142.736 0,146.825 l 0,40.169 c 0,4.256 3.283,7.733 7.733,7.733 l 596.534,0 z" /><path
         style="fill:#ffffff;fill-opacity:1"
         id="path9"
         d="m 0,326.084 c 0,4.256 3.283,7.733 7.733,7.733 l 596.533,0 c 4.256,0 7.733,-3.645 7.733,-7.733 l 0,-40.169 c 0,-4.284 -3.283,-7.733 -7.733,-7.733 l -596.533,0 C 3.477,278.182 0,281.827 0,285.915 l 0,40.169 z" /><path
         style="fill:#ffffff;fill-opacity:1"
         id="path11"
         d="m 0,465.175 c 0,4.256 3.283,7.733 7.733,7.733 l 596.533,0 c 4.256,0 7.733,-3.645 7.733,-7.733 l 0,-40.169 c 0,-4.256 -3.283,-7.732 -7.733,-7.732 l -596.533,0 C 3.477,417.274 0,420.918 0,425.006 l 0,40.169 z" /></g></g><g
     transform="translate(0,-139.092)"
     id="g13" /><g
     transform="translate(0,-139.092)"
     id="g15" /><g
     transform="translate(0,-139.092)"
     id="g17" /><g
     transform="translate(0,-139.092)"
     id="g19" /><g
     transform="translate(0,-139.092)"
     id="g21" /><g
     transform="translate(0,-139.092)"
     id="g23" /><g
     transform="translate(0,-139.092)"
     id="g25" /><g
     transform="translate(0,-139.092)"
     id="g27" /><g
     transform="translate(0,-139.092)"
     id="g29" /><g
     transform="translate(0,-139.092)"
     id="g31" /><g
     transform="translate(0,-139.092)"
     id="g33" /><g
     transform="translate(0,-139.092)"
     id="g35" /><g
     transform="translate(0,-139.092)"
     id="g37" /><g
     transform="translate(0,-139.092)"
     id="g39" /><g
     transform="translate(0,-139.092)"
     id="g41" /></svg>