<?xml version="1.0" encoding="UTF-8" standalone="no"?>
<svg
   xmlns:dc="http://purl.org/dc/elements/1.1/"
   xmlns:cc="http://creativecommons.org/ns#"
   xmlns:rdf="http://www.w3.org/1999/02/22-rdf-syntax-ns#"
   xmlns:svg="http://www.w3.org/2000/svg"
   xmlns="http://www.w3.org/2000/svg"
   xml:space="preserve"
   width="384"
   viewBox="0 0 384 384.20001"
   version="1.1"
   id="Layer_1"
   height="384.20001"><metadata
     id="metadata9"><rdf:RDF><cc:Work
         rdf:about=""><dc:format>image/svg+xml</dc:format><dc:type
           rdf:resource="http://purl.org/dc/dcmitype/StillImage" /><dc:title></dc:title></cc:Work></rdf:RDF></metadata><defs
     id="defs7" /><path
     style="fill:#ffffff"
     id="path3"
     d="m 379.65,322.9 -131.2,-131.7 131.5,-130 c 5.4,-5.4 5.4,-14.2 0,-19.6 L 342.55,4 c -2.6,-2.6 -6.1,-4 -9.8,-4 -3.7,0 -7.2,1.5 -9.8,4 L 192.05,133.6 60.95,4.1 c -2.6,-2.6 -6.1,-4 -9.8,-4 -3.7,0 -7.2,1.5 -9.8,4 L 4.05,41.7 c -5.4,5.4 -5.4,14.2 0,19.6 l 131.5,130 -131.1,131.6 c -2.6,2.6 -4.1,6.1 -4.1,9.8 0,3.7 1.4,7.2 4.1,9.8 l 37.4,37.6 c 2.7,2.7 6.2,4.1 9.8,4.1 3.5,0 7.1,-1.3 9.8,-4.1 L 192.05,248.9 322.75,380 c 2.7,2.7 6.2,4.1 9.8,4.1 3.5,0 7.1,-1.3 9.8,-4.1 l 37.4,-37.6 c 2.6,-2.6 4.1,-6.1 4.1,-9.8 -0.1,-3.6 -1.6,-7.1 -4.2,-9.7 z" /></svg>