<?xml version="1.0" encoding="UTF-8" standalone="no"?>
<svg
   xmlns:dc="http://purl.org/dc/elements/1.1/"
   xmlns:cc="http://creativecommons.org/ns#"
   xmlns:rdf="http://www.w3.org/1999/02/22-rdf-syntax-ns#"
   xmlns:svg="http://www.w3.org/2000/svg"
   xmlns="http://www.w3.org/2000/svg"
   xml:space="preserve"
   style="enable-background:new 0 0 497.199 497.199;"
   viewBox="0 0 497.199 497.199"
   height="497.199px"
   width="497.199px"
   y="0px"
   x="0px"
   id="Capa_1"
   version="1.1"><metadata
     id="metadata45"><rdf:RDF><cc:Work
         rdf:about=""><dc:format>image/svg+xml</dc:format><dc:type
           rdf:resource="http://purl.org/dc/dcmitype/StillImage" /><dc:title></dc:title></cc:Work></rdf:RDF></metadata><defs
     id="defs43" /><g
     style="fill:#c40101;fill-opacity:1"
     id="g3"><g
       style="fill:#c40101;fill-opacity:1"
       id="g5"><path
         style="fill:#c40101;fill-opacity:1"
         id="path7"
         d="M191.2,248.6c0,32.5,24.9,57.4,57.4,57.4c32.5,0,57.4-24.9,57.4-57.4c0-38.2-57.4-172.1-57.4-172.1    S191.2,210.4,191.2,248.6z M286.801,248.6c0,21-17.201,38.201-38.201,38.201c-21,0-38.2-17.201-38.2-38.201    c0-21,17.2-38.2,38.2-38.2C269.6,210.4,286.801,227.6,286.801,248.6z" /><path
         style="fill:#c40101;fill-opacity:1"
         id="path9"
         d="M248.6,0C110.9,0,0,110.9,0,248.6c0,137.701,110.9,248.6,248.6,248.6c137.701,0,248.599-110.898,248.599-248.6    C497.199,110.9,386.301,0,248.6,0z M248.6,478.1c-126.2,0-229.5-103.299-229.5-229.5c0-126.2,103.3-229.5,229.5-229.5    c126.201,0,229.5,103.3,229.5,229.5C478.1,374.801,374.801,478.1,248.6,478.1z" /></g></g><g
     id="g11" /><g
     id="g13" /><g
     id="g15" /><g
     id="g17" /><g
     id="g19" /><g
     id="g21" /><g
     id="g23" /><g
     id="g25" /><g
     id="g27" /><g
     id="g29" /><g
     id="g31" /><g
     id="g33" /><g
     id="g35" /><g
     id="g37" /><g
     id="g39" /></svg>