<?xml version="1.0" encoding="UTF-8" standalone="no"?>
<svg
   xmlns:dc="http://purl.org/dc/elements/1.1/"
   xmlns:cc="http://creativecommons.org/ns#"
   xmlns:rdf="http://www.w3.org/1999/02/22-rdf-syntax-ns#"
   xmlns:svg="http://www.w3.org/2000/svg"
   xmlns="http://www.w3.org/2000/svg"
   xmlns:sodipodi="http://sodipodi.sourceforge.net/DTD/sodipodi-0.dtd"
   xmlns:inkscape="http://www.inkscape.org/namespaces/inkscape"
   version="1.0"
   width="199.99995"
   height="134.17433"
   viewBox="0 0 159.99996 107.33946"
   preserveAspectRatio="xMidYMid meet"
   id="svg2"
   inkscape:version="0.91 r13725"
   sodipodi:docname="draugiem.svg">
  <metadata
     id="metadata24">
    <rdf:RDF>
      <cc:Work
         rdf:about="">
        <dc:format>image/svg+xml</dc:format>
        <dc:type
           rdf:resource="http://purl.org/dc/dcmitype/StillImage" />
        <dc:title></dc:title>
      </cc:Work>
    </rdf:RDF>
  </metadata>
  <defs
     id="defs22" />
  <sodipodi:namedview
     pagecolor="#ffffff"
     bordercolor="#666666"
     borderopacity="1"
     objecttolerance="10"
     gridtolerance="10"
     guidetolerance="10"
     inkscape:pageopacity="0"
     inkscape:pageshadow="2"
     inkscape:window-width="1920"
     inkscape:window-height="1027"
     id="namedview20"
     showgrid="false"
     units="px"
     fit-margin-top="0"
     fit-margin-left="0"
     fit-margin-right="0"
     fit-margin-bottom="0"
     showborder="false"
     inkscape:zoom="2.2432688"
     inkscape:cx="23.720175"
     inkscape:cy="85.170112"
     inkscape:window-x="-8"
     inkscape:window-y="-8"
     inkscape:window-maximized="1"
     inkscape:current-layer="svg2" />
  <g
     transform="matrix(0.01376897,0,0,-0.01148175,-0.0170178,107.3584)"
     id="g4"
     style="fill:#12d665;fill-opacity:1;stroke:none">
    <path
       d="m 5373,9326 c -95,-31 -157,-72 -235,-154 -148,-157 -221,-393 -221,-717 0,-336 76,-569 237,-731 115,-116 236,-164 411,-164 179,0 308,53 424,175 169,178 254,504 223,852 -37,412 -206,675 -483,748 -89,24 -269,19 -356,-9 z"
       id="path6"
       style="fill:#12d665;fill-opacity:1"
       inkscape:connector-curvature="0" />
    <path
       d="m 4045,8886 c -198,-37 -327,-170 -401,-411 -27,-87 -28,-98 -28,-315 -1,-204 1,-233 22,-315 36,-139 110,-283 185,-359 203,-207 552,-209 742,-4 240,259 243,904 4,1214 -119,155 -321,228 -524,190 z"
       id="path8"
       style="fill:#12d665;fill-opacity:1"
       inkscape:connector-curvature="0" />
    <path
       d="m 6905,8890 c -288,-40 -478,-309 -503,-715 -20,-313 38,-543 174,-694 98,-108 237,-159 404,-148 277,18 460,210 529,553 81,408 -17,792 -239,934 -95,61 -237,88 -365,70 z"
       id="path10"
       style="fill:#12d665;fill-opacity:1"
       inkscape:connector-curvature="0" />
    <path
       d="m 5392,7410 c -147,-15 -294,-54 -412,-111 -91,-45 -116,-63 -196,-143 -80,-81 -98,-104 -142,-196 -88,-182 -118,-360 -109,-640 9,-270 49,-503 173,-1010 78,-317 105,-439 138,-625 57,-319 132,-876 221,-1640 43,-365 62,-470 104,-558 58,-121 147,-184 301,-213 189,-36 392,30 471,153 71,113 85,182 144,693 57,492 86,726 131,1045 71,506 105,688 214,1125 148,598 186,841 177,1160 -6,214 -21,305 -75,444 -42,108 -102,194 -194,281 -122,115 -272,183 -482,220 -112,19 -342,26 -464,15 z"
       id="path12"
       style="fill:#12d665;fill-opacity:1"
       inkscape:connector-curvature="0" />
    <path
       d="m 4015,7199 c -113,-15 -224,-47 -315,-91 -116,-56 -231,-169 -284,-279 -69,-146 -80,-205 -80,-459 -1,-191 3,-245 22,-355 30,-169 87,-404 167,-690 133,-476 187,-756 340,-1770 41,-269 82,-515 91,-545 23,-79 59,-144 99,-185 134,-133 434,-139 573,-11 90,82 110,166 147,603 29,346 32,275 -25,693 -59,441 -109,707 -205,1095 -167,675 -201,899 -192,1245 6,207 21,314 63,443 20,62 99,225 122,250 9,10 12,21 6,26 -30,28 -392,49 -529,30 z"
       id="path14"
       style="fill:#12d665;fill-opacity:1"
       inkscape:connector-curvature="0" />
    <path
       d="m 6785,7204 c -69,-9 -181,-26 -188,-31 -4,-2 4,-23 19,-46 118,-191 175,-420 176,-712 2,-319 -47,-617 -197,-1215 -100,-399 -165,-761 -235,-1323 l -18,-148 23,-292 c 14,-161 27,-312 30,-337 24,-194 91,-301 221,-350 171,-64 409,-15 495,103 70,95 84,153 154,624 155,1035 219,1376 346,1826 132,469 180,698 199,947 25,335 -42,581 -200,739 -147,147 -388,224 -690,219 -58,0 -118,-3 -135,-4 z"
       id="path16"
       style="fill:#12d665;fill-opacity:1"
       inkscape:connector-curvature="0" />
    <path
       d="m 8450,6779 c -188,-14 -188,-25 0,-32 829,-33 1536,-289 1945,-702 600,-607 512,-1479 -242,-2397 C 9626,3006 8888,2439 8003,1997 7112,1551 5987,1216 4868,1065 c -411,-55 -929,-78 -1288,-56 -874,53 -1495,277 -1881,677 -147,154 -257,334 -318,523 -47,144 -56,211 -55,411 0,152 4,204 23,290 165,774 834,1588 1874,2278 103,68 186,126 184,128 -12,12 -515,-214 -828,-372 C 1045,4170 140,3232 10,2284 2,2225 -1,2119 3,1975 8,1734 25,1630 90,1425 346,624 1281,123 2731,9 c 96,-7 319,-9 655,-6 530,5 665,13 1089,67 1681,214 3692,954 5025,1848 183,123 451,323 605,451 819,683 1375,1511 1499,2230 25,146 23,521 -4,651 -123,605 -595,1076 -1338,1333 -241,84 -522,146 -832,183 -160,19 -783,28 -980,13 z"
       id="path18"
       style="fill:#12d665;fill-opacity:1"
       inkscape:connector-curvature="0" />
  </g>
</svg>
