<?xml version="1.0" encoding="UTF-8" standalone="no"?>
<!-- Generator: Adobe Illustrator 19.0.0, SVG Export Plug-In . SVG Version: 6.00 Build 0)  -->

<svg
   xmlns:dc="http://purl.org/dc/elements/1.1/"
   xmlns:cc="http://creativecommons.org/ns#"
   xmlns:rdf="http://www.w3.org/1999/02/22-rdf-syntax-ns#"
   xmlns:svg="http://www.w3.org/2000/svg"
   xmlns="http://www.w3.org/2000/svg"
   xmlns:sodipodi="http://sodipodi.sourceforge.net/DTD/sodipodi-0.dtd"
   xmlns:inkscape="http://www.inkscape.org/namespaces/inkscape"
   version="1.1"
   id="Layer_1"
   x="0px"
   y="0px"
   viewBox="0 0 55.03923 43.799999"
   xml:space="preserve"
   inkscape:version="0.91 r13725"
   sodipodi:docname="Home.svg"
   width="55.03923"
   height="43.799999"><metadata
     id="metadata11"><rdf:RDF><cc:Work
         rdf:about=""><dc:format>image/svg+xml</dc:format><dc:type
           rdf:resource="http://purl.org/dc/dcmitype/StillImage" /><dc:title></dc:title></cc:Work></rdf:RDF></metadata><defs
     id="defs9" /><sodipodi:namedview
     pagecolor="#ffffff"
     bordercolor="#666666"
     borderopacity="1"
     objecttolerance="10"
     gridtolerance="10"
     guidetolerance="10"
     inkscape:pageopacity="0"
     inkscape:pageshadow="2"
     inkscape:window-width="742"
     inkscape:window-height="480"
     id="namedview7"
     showgrid="false"
     fit-margin-top="0"
     fit-margin-left="0"
     fit-margin-right="0"
     fit-margin-bottom="0"
     inkscape:zoom="2.4583333"
     inkscape:cx="27.53923"
     inkscape:cy="21.9"
     inkscape:window-x="0"
     inkscape:window-y="0"
     inkscape:window-maximized="0"
     inkscape:current-layer="Layer_1" /><style
     type="text/css"
     id="style3">
	.st0{fill:#333333;}
</style><g
     id="XMLID_2_"
     style="fill:#e3e7e8;fill-opacity:1"
     transform="translate(-20.46077,-26.1)"><path
       id="XMLID_6_"
       class="st0"
       d="m 67.6,51.3 0,16.4 c 0,0.6 -0.2,1.1 -0.6,1.5 -0.4,0.4 -0.9,0.6 -1.5,0.6 l -13.1,0 0,-13 -8.7,0 0,13.1 -13.2,0 c -0.6,0 -1.1,-0.2 -1.5,-0.6 -0.4,-0.4 -0.6,-0.9 -0.6,-1.5 l 0,-16.5 c 0,0 0,-0.1 0,-0.1 0,0 0,-0.1 0,-0.1 L 48,35 67.6,51.2 c 0,0 0,0 0,0.1 z m 7.7,-2.3 -2.1,2.5 c -0.2,0.2 -0.4,0.3 -0.7,0.4 l -0.1,0 c -0.3,0 -0.5,-0.1 -0.7,-0.2 L 48,31.9 24.4,51.6 c -0.3,0.2 -0.5,0.3 -0.8,0.2 -0.3,0 -0.5,-0.2 -0.7,-0.4 L 20.7,49 c -0.2,-0.2 -0.3,-0.5 -0.2,-0.8 0,-0.3 0.1,-0.6 0.4,-0.7 L 45.4,27 c 0.7,-0.6 1.6,-0.9 2.6,-0.9 1,0 1.9,0.3 2.6,0.9 l 8.3,7 0,-6.7 c 0,-0.3 0.1,-0.6 0.3,-0.8 0.2,-0.2 0.5,-0.3 0.8,-0.3 l 6.5,0 c 0.3,0 0.6,0.1 0.8,0.3 0.2,0.2 0.3,0.5 0.3,0.8 l 0,13.9 7.5,6.2 c 0.2,0.2 0.4,0.4 0.4,0.7 0,0.3 -0.1,0.6 -0.2,0.9 z"
       style="fill:#e3e7e8;fill-opacity:1"
       inkscape:connector-curvature="0" /></g></svg>