<?xml version="1.0" encoding="UTF-8" standalone="no"?>
<!-- Generator: Adobe Illustrator 16.0.0, SVG Export Plug-In . SVG Version: 6.00 Build 0)  -->

<svg
   xmlns:dc="http://purl.org/dc/elements/1.1/"
   xmlns:cc="http://creativecommons.org/ns#"
   xmlns:rdf="http://www.w3.org/1999/02/22-rdf-syntax-ns#"
   xmlns:svg="http://www.w3.org/2000/svg"
   xmlns="http://www.w3.org/2000/svg"
   xmlns:sodipodi="http://sodipodi.sourceforge.net/DTD/sodipodi-0.dtd"
   xmlns:inkscape="http://www.inkscape.org/namespaces/inkscape"
   version="1.1"
   id="Capa_1"
   x="0px"
   y="0px"
   width="485.211"
   height="363.90799"
   viewBox="0 0 485.211 363.90799"
   xml:space="preserve"
   inkscape:version="0.91 r13725"
   sodipodi:docname="mail.svg"><metadata
     id="metadata41"><rdf:RDF><cc:Work
         rdf:about=""><dc:format>image/svg+xml</dc:format><dc:type
           rdf:resource="http://purl.org/dc/dcmitype/StillImage" /><dc:title></dc:title></cc:Work></rdf:RDF></metadata><defs
     id="defs39" /><sodipodi:namedview
     pagecolor="#ffffff"
     bordercolor="#666666"
     borderopacity="1"
     objecttolerance="10"
     gridtolerance="10"
     guidetolerance="10"
     inkscape:pageopacity="0"
     inkscape:pageshadow="2"
     inkscape:window-width="742"
     inkscape:window-height="480"
     id="namedview37"
     showgrid="false"
     fit-margin-top="0"
     fit-margin-left="0"
     fit-margin-right="0"
     fit-margin-bottom="0"
     inkscape:zoom="0.48638634"
     inkscape:cx="242.6055"
     inkscape:cy="181.9535"
     inkscape:window-x="0"
     inkscape:window-y="0"
     inkscape:window-maximized="0"
     inkscape:current-layer="Capa_1" /><g
     id="g3"
     style="fill:#e3e7e8;fill-opacity:1"
     transform="translate(0,-60.651)"><path
       d="m 485.211,363.906 c 0,10.637 -2.992,20.498 -7.785,29.174 L 324.225,221.67 475.765,89.086 c 5.895,9.355 9.446,20.344 9.446,32.219 l 0,242.601 z M 242.606,252.793 453.469,68.293 c -8.653,-4.737 -18.397,-7.642 -28.908,-7.642 l -363.91,0 c -10.524,0 -20.271,2.905 -28.889,7.642 l 210.844,184.5 z m 58.787,-11.162 -48.809,42.734 c -2.855,2.487 -6.41,3.729 -9.978,3.729 -3.57,0 -7.125,-1.242 -9.98,-3.729 L 183.806,241.629 28.667,415.23 c 9.299,5.834 20.197,9.329 31.983,9.329 l 363.911,0 c 11.784,0 22.687,-3.495 31.983,-9.329 L 301.393,241.631 Z M 9.448,89.085 C 3.554,98.44 0,109.429 0,121.305 l 0,242.602 c 0,10.637 2.978,20.498 7.789,29.174 L 160.972,221.641 9.448,89.085 Z"
       id="path5"
       style="fill:#e3e7e8;fill-opacity:1"
       inkscape:connector-curvature="0" /></g><g
     id="g7"
     transform="translate(0,-60.651)" /><g
     id="g9"
     transform="translate(0,-60.651)" /><g
     id="g11"
     transform="translate(0,-60.651)" /><g
     id="g13"
     transform="translate(0,-60.651)" /><g
     id="g15"
     transform="translate(0,-60.651)" /><g
     id="g17"
     transform="translate(0,-60.651)" /><g
     id="g19"
     transform="translate(0,-60.651)" /><g
     id="g21"
     transform="translate(0,-60.651)" /><g
     id="g23"
     transform="translate(0,-60.651)" /><g
     id="g25"
     transform="translate(0,-60.651)" /><g
     id="g27"
     transform="translate(0,-60.651)" /><g
     id="g29"
     transform="translate(0,-60.651)" /><g
     id="g31"
     transform="translate(0,-60.651)" /><g
     id="g33"
     transform="translate(0,-60.651)" /><g
     id="g35"
     transform="translate(0,-60.651)" /></svg>