<?xml version="1.0" encoding="UTF-8" standalone="no"?>
<svg
   xmlns:dc="http://purl.org/dc/elements/1.1/"
   xmlns:cc="http://creativecommons.org/ns#"
   xmlns:rdf="http://www.w3.org/1999/02/22-rdf-syntax-ns#"
   xmlns:svg="http://www.w3.org/2000/svg"
   xmlns="http://www.w3.org/2000/svg"
   xml:space="preserve"
   viewBox="0 0 485.211 363.90799"
   height="363.90799"
   width="485.211"
   y="0px"
   x="0px"
   id="Capa_1"
   version="1.1"><metadata
     id="metadata41"><rdf:RDF><cc:Work
         rdf:about=""><dc:format>image/svg+xml</dc:format><dc:type
           rdf:resource="http://purl.org/dc/dcmitype/StillImage" /><dc:title></dc:title></cc:Work></rdf:RDF></metadata><defs
     id="defs39" /><g
     transform="translate(0,-60.651)"
     style="fill:#e3e7e8;fill-opacity:1"
     id="g3"><path
       style="fill:#e3e7e8;fill-opacity:1"
       id="path5"
       d="m 485.211,363.906 c 0,10.637 -2.992,20.498 -7.785,29.174 L 324.225,221.67 475.765,89.086 c 5.895,9.355 9.446,20.344 9.446,32.219 l 0,242.601 z M 242.606,252.793 453.469,68.293 c -8.653,-4.737 -18.397,-7.642 -28.908,-7.642 l -363.91,0 c -10.524,0 -20.271,2.905 -28.889,7.642 l 210.844,184.5 z m 58.787,-11.162 -48.809,42.734 c -2.855,2.487 -6.41,3.729 -9.978,3.729 -3.57,0 -7.125,-1.242 -9.98,-3.729 L 183.806,241.629 28.667,415.23 c 9.299,5.834 20.197,9.329 31.983,9.329 l 363.911,0 c 11.784,0 22.687,-3.495 31.983,-9.329 L 301.393,241.631 Z M 9.448,89.085 C 3.554,98.44 0,109.429 0,121.305 l 0,242.602 c 0,10.637 2.978,20.498 7.789,29.174 L 160.972,221.641 9.448,89.085 Z" /></g><g
     transform="translate(0,-60.651)"
     id="g7" /><g
     transform="translate(0,-60.651)"
     id="g9" /><g
     transform="translate(0,-60.651)"
     id="g11" /><g
     transform="translate(0,-60.651)"
     id="g13" /><g
     transform="translate(0,-60.651)"
     id="g15" /><g
     transform="translate(0,-60.651)"
     id="g17" /><g
     transform="translate(0,-60.651)"
     id="g19" /><g
     transform="translate(0,-60.651)"
     id="g21" /><g
     transform="translate(0,-60.651)"
     id="g23" /><g
     transform="translate(0,-60.651)"
     id="g25" /><g
     transform="translate(0,-60.651)"
     id="g27" /><g
     transform="translate(0,-60.651)"
     id="g29" /><g
     transform="translate(0,-60.651)"
     id="g31" /><g
     transform="translate(0,-60.651)"
     id="g33" /><g
     transform="translate(0,-60.651)"
     id="g35" /></svg>