<?xml version="1.0" encoding="UTF-8" standalone="no"?>
<!-- Generator: Adobe Illustrator 16.0.0, SVG Export Plug-In . SVG Version: 6.00 Build 0)  -->

<svg
   xmlns:dc="http://purl.org/dc/elements/1.1/"
   xmlns:cc="http://creativecommons.org/ns#"
   xmlns:rdf="http://www.w3.org/1999/02/22-rdf-syntax-ns#"
   xmlns:svg="http://www.w3.org/2000/svg"
   xmlns="http://www.w3.org/2000/svg"
   xmlns:sodipodi="http://sodipodi.sourceforge.net/DTD/sodipodi-0.dtd"
   xmlns:inkscape="http://www.inkscape.org/namespaces/inkscape"
   version="1.1"
   id="Layer_1"
   x="0px"
   y="0px"
   width="477.15601"
   height="477.06839"
   viewBox="0 0 477.15601 477.06839"
   enable-background="new 0 0 512 512"
   xml:space="preserve"
   inkscape:version="0.91 r13725"
   sodipodi:docname="phone.svg"><metadata
     id="metadata9"><rdf:RDF><cc:Work
         rdf:about=""><dc:format>image/svg+xml</dc:format><dc:type
           rdf:resource="http://purl.org/dc/dcmitype/StillImage" /><dc:title></dc:title></cc:Work></rdf:RDF></metadata><defs
     id="defs7" /><sodipodi:namedview
     pagecolor="#ffffff"
     bordercolor="#666666"
     borderopacity="1"
     objecttolerance="10"
     gridtolerance="10"
     guidetolerance="10"
     inkscape:pageopacity="0"
     inkscape:pageshadow="2"
     inkscape:window-width="1920"
     inkscape:window-height="1027"
     id="namedview5"
     showgrid="false"
     fit-margin-top="0"
     fit-margin-left="0"
     fit-margin-right="0"
     fit-margin-bottom="0"
     inkscape:zoom="0.4609375"
     inkscape:cx="238.57135"
     inkscape:cy="238.5463"
     inkscape:window-x="-8"
     inkscape:window-y="-8"
     inkscape:window-maximized="1"
     inkscape:current-layer="Layer_1" /><path
     d="m 475.00935,380.27208 -2.375,-7.156 c -5.625,-16.719 -24.063,-34.156 -41,-38.75 l -62.688,-17.125 c -17,-4.625 -41.25,1.594 -53.688,14.031 l -22.687,22.688 c -82.453,-22.281 -147.109,-86.938 -169.359,-169.375 l 22.688,-22.688 c 12.438,-12.438 18.656,-36.656 14.031,-53.656 l -17.094,-62.718998 c -4.625,-16.969 -22.094,-35.406 -38.781,-40.969 l -7.155998,-2.406 c -16.719,-5.563 -40.563,0.063 -53,12.5 l -33.938,33.969 c -6.063,6.031 -9.93799999,23.281 -9.93799999,23.344 C -1.162648,179.71008 41.087352,283.52208 117.30535,359.74108 c 76.031,76.031 179.453,118.219 286.891,117.313 0.563,0 18.313,-3.813 24.375,-9.844 l 33.938,-33.938 c 12.437,-12.437 18.062,-36.281 12.5,-53 z"
     id="path3"
     style="fill:#e3e7e8;fill-opacity:1"
     inkscape:connector-curvature="0" /></svg>