<?xml version="1.0" encoding="UTF-8" standalone="no"?>
<svg
   xmlns:dc="http://purl.org/dc/elements/1.1/"
   xmlns:cc="http://creativecommons.org/ns#"
   xmlns:rdf="http://www.w3.org/1999/02/22-rdf-syntax-ns#"
   xmlns:svg="http://www.w3.org/2000/svg"
   xmlns="http://www.w3.org/2000/svg"
   version="1.1"
   id="Layer_1"
   x="0px"
   y="0px"
   viewBox="-288 379 33.400002 33.400002"
   xml:space="preserve"
   width="33.400002"
   height="33.400002"><metadata
     id="metadata21"><rdf:RDF><cc:Work
         rdf:about=""><dc:format>image/svg+xml</dc:format><dc:type
           rdf:resource="http://purl.org/dc/dcmitype/StillImage" /><dc:title></dc:title></cc:Work></rdf:RDF></metadata><defs
     id="defs19" /><style
     type="text/css"
     id="style3">
	.st0{fill:none;}
	.st1{fill:##efefef;}
	.st2{fill:none;stroke:#efefef;stroke-width:0.5;stroke-miterlimit:10;}
</style><g
     id="g4146"><rect
       style="fill:none"
       id="rect5"
       height="33.299999"
       width="33.299999"
       class="st0"
       y="378.99997"
       x="-288.00003" /><path
       style="fill:#2e3f43;fill-opacity:1"
       id="path7"
       d="m -271.3,411.3 c -8.6,0 -15.6,-7 -15.6,-15.6 0,-8.6 7,-15.6 15.6,-15.6 8.6,0 15.6,7 15.6,15.6 0,8.6 -7,15.6 -15.6,15.6 m 0,-32.3 c -9.2,0 -16.7,7.5 -16.7,16.7 0,9.2 7.5,16.7 16.7,16.7 9.2,0 16.7,-7.5 16.7,-16.7 0,-9.2 -7.5,-16.7 -16.7,-16.7"
       class="st1" /><rect
       style="fill:none"
       id="rect9"
       height="33.299999"
       width="33.299999"
       class="st0"
       y="378.99997"
       x="-288.00003" /><rect
       style="fill:none"
       id="rect13"
       height="33.299999"
       width="33.299999"
       class="st0"
       y="378.99997"
       x="-288.00003" /><path
       style="fill:#2e3f43;fill-opacity:1"
       id="path3"
       d="m -263.72278,400.6759 -0.0742,-0.24066 c -0.17582,-0.56225 -0.75214,-1.14863 -1.28154,-1.30313 l -1.95943,-0.57591 c -0.53138,-0.15553 -1.28935,0.0536 -1.67814,0.47186 l -0.70911,0.76298 c -2.57723,-0.74929 -4.59818,-2.92366 -5.29366,-5.69596 l 0.70917,-0.76298 c 0.38877,-0.41827 0.58312,-1.23271 0.43856,-1.80441 l -0.5343,-2.10918 c -0.14457,-0.57066 -0.6906,-1.19069 -1.21219,-1.37778 l -0.22367,-0.0809 c -0.52258,-0.18708 -1.26787,0.002 -1.65662,0.42037 l -1.0608,1.14236 c -0.18951,0.20281 -0.31063,0.78291 -0.31063,0.78503 -0.0371,3.62356 1.2835,7.11468 3.66585,9.67787 2.37649,2.55687 5.60915,3.97562 8.96734,3.94515 0.0175,0 0.57242,-0.12823 0.76189,-0.33106 l 1.0608,-1.1413 c 0.38874,-0.41825 0.56456,-1.2201 0.39071,-1.78235 z" /></g></svg>