<?xml version="1.0" encoding="UTF-8" standalone="no"?>
<svg
   xmlns:dc="http://purl.org/dc/elements/1.1/"
   xmlns:cc="http://creativecommons.org/ns#"
   xmlns:rdf="http://www.w3.org/1999/02/22-rdf-syntax-ns#"
   xmlns:svg="http://www.w3.org/2000/svg"
   xmlns="http://www.w3.org/2000/svg"
   height="33.400002"
   width="33.400002"
   xml:space="preserve"
   viewBox="-288 379 33.400002 33.400002"
   y="0px"
   x="0px"
   id="Layer_1"
   version="1.1"><metadata
     id="metadata21"><rdf:RDF><cc:Work
         rdf:about=""><dc:format>image/svg+xml</dc:format><dc:type
           rdf:resource="http://purl.org/dc/dcmitype/StillImage" /><dc:title></dc:title></cc:Work></rdf:RDF></metadata><defs
     id="defs19" /><style
     id="style3"
     type="text/css">
	.st0{fill:none;}
	.st1{fill:##efefef;}
	.st2{fill:none;stroke:#efefef;stroke-width:0.5;stroke-miterlimit:10;}
</style><rect
     style="fill:none"
     id="rect5"
     height="33.299999"
     width="33.299999"
     class="st0"
     y="378.99997"
     x="-288.00003" /><path
     style="fill:#c40101;fill-opacity:1"
     id="path7"
     d="m -271.3,411.3 c -8.6,0 -15.6,-7 -15.6,-15.6 0,-8.6 7,-15.6 15.6,-15.6 8.6,0 15.6,7 15.6,15.6 0,8.6 -7,15.6 -15.6,15.6 m 0,-32.3 c -9.2,0 -16.7,7.5 -16.7,16.7 0,9.2 7.5,16.7 16.7,16.7 9.2,0 16.7,-7.5 16.7,-16.7 0,-9.2 -7.5,-16.7 -16.7,-16.7"
     class="st1" /><rect
     style="fill:none"
     id="rect9"
     height="33.299999"
     width="33.299999"
     class="st0"
     y="378.99997"
     x="-288.00003" /><path
     style="fill:#c40101;fill-opacity:1"
     id="path11"
     d="m -265.1,401.6 c -0.1,0.3 -0.3,0.5 -0.5,0.7 l -0.6,0.5 c -0.6,0.4 -1.8,0.8 -3.6,-0.2 -1.4,-0.8 -2.9,-2.2 -4.4,-4 l -0.4,-0.5 c -1.4,-1.9 -2.4,-3.6 -2.8,-5.1 -0.6,-2 0.2,-3 0.7,-3.5 0,0 0.1,-0.1 0.2,-0.1 l 0,0 0.5,-0.3 c 0.3,-0.2 0.5,-0.3 0.8,-0.3 0.6,-0.1 1.2,0.6 1.5,1.1 l 0.1,0.1 c 0.8,1 0.9,1.5 0.8,1.7 0,0.2 -0.4,0.5 -0.6,0.7 l 0,0 0,0 0,0 -0.4,0.4 0,0 0,0 c -0.1,0.1 -0.1,0.2 -0.2,0.2 -0.2,0.4 -0.5,1.3 -0.1,1.9 0.3,0.6 0.9,1.5 1.5,2.2 0.6,0.7 1.3,1.5 1.8,2 0.4,0.3 0.9,0.4 1.3,0.4 0.2,0 0.5,0 0.6,-0.1 0.1,0 0.2,-0.1 0.3,-0.1 l 0,0 0,0 0.5,-0.3 0,0 0,0 c 0.3,-0.2 0.7,-0.5 0.9,-0.4 0.2,0 0.6,0.2 1.4,1.2 l 0.1,0.1 c 0.3,0.4 0.8,1.1 0.6,1.7 m -0.2,-2.1 -0.1,-0.1 c -0.7,-0.9 -1.3,-1.4 -1.8,-1.4 -0.4,-0.1 -0.9,0.2 -1.3,0.6 l -0.5,0.3 c -0.1,0 -0.1,0.1 -0.2,0.1 -0.3,0.1 -1,0.1 -1.4,-0.2 -0.5,-0.4 -1.2,-1.2 -1.8,-1.9 -0.5,-0.7 -1.1,-1.6 -1.4,-2.1 -0.3,-0.5 0,-1.1 0.1,-1.4 l 0.1,-0.1 0.4,-0.4 0,0 0,0 c 0.4,-0.3 0.8,-0.7 0.8,-1.1 0.1,-0.5 -0.3,-1.2 -1,-2.1 l -0.1,-0.1 c -0.4,-0.6 -1.1,-1.4 -2.1,-1.3 -0.4,0.1 -0.7,0.2 -1.1,0.4 l 0,0 0,0 -0.5,0.4 0,0 0,0 c -0.1,0 -0.1,0.1 -0.2,0.1 -0.5,0.4 -1.5,1.7 -0.8,4 0.5,1.5 1.4,3.3 2.8,5.1 l 0,0 0.7,0.9 0,0 c 1.5,1.7 3,3.1 4.3,3.9 0.9,0.5 1.7,0.7 2.4,0.7 0.9,0 1.5,-0.3 1.8,-0.5 l 0.2,-0.1 c 0,0 0,0 0.1,-0.1 l 0.4,-0.3 0,0 0,0 c 0.3,-0.3 0.5,-0.6 0.7,-0.9 0.6,-1 -0.1,-1.8 -0.5,-2.4"
     class="st1" /><rect
     style="fill:none"
     id="rect13"
     height="33.299999"
     width="33.299999"
     class="st0"
     y="378.99997"
     x="-288.00003" /><path
     style="fill:#c40101;stroke-width:0.5;stroke-miterlimit:10;fill-opacity:1;stroke:#c40101;stroke-opacity:0"
     id="path15"
     d="m -265.1,401.6 c -0.1,0.3 -0.3,0.5 -0.5,0.7 l -0.6,0.5 c -0.6,0.4 -1.8,0.8 -3.6,-0.2 -1.4,-0.8 -2.9,-2.2 -4.4,-4 l -0.4,-0.5 c -1.4,-1.9 -2.4,-3.6 -2.8,-5.1 -0.6,-2 0.2,-3 0.7,-3.5 0,0 0.1,-0.1 0.2,-0.1 l 0,0 0.5,-0.3 c 0.3,-0.2 0.5,-0.3 0.8,-0.3 0.6,-0.1 1.2,0.6 1.5,1.1 l 0.1,0.1 c 0.8,1 0.9,1.5 0.8,1.7 0,0.2 -0.4,0.5 -0.6,0.7 l 0,0 0,0 0,0 -0.4,0.4 0,0 0,0 c -0.1,0.1 -0.1,0.2 -0.2,0.2 -0.2,0.4 -0.5,1.3 -0.1,1.9 0.3,0.6 0.9,1.5 1.5,2.2 0.6,0.7 1.3,1.5 1.8,2 0.4,0.3 0.9,0.4 1.3,0.4 0.2,0 0.5,0 0.6,-0.1 0.1,0 0.2,-0.1 0.3,-0.1 l 0,0 0,0 0.5,-0.3 0,0 0,0 c 0.3,-0.2 0.7,-0.5 0.9,-0.4 0.2,0 0.6,0.2 1.4,1.2 l 0.1,0.1 c 0.3,0.4 0.8,1.1 0.6,1.7 z m -0.2,-2.1 -0.1,-0.1 c -0.7,-0.9 -1.3,-1.4 -1.8,-1.4 -0.4,-0.1 -0.9,0.2 -1.3,0.6 l -0.5,0.3 c -0.1,0 -0.1,0.1 -0.2,0.1 -0.3,0.1 -1,0.1 -1.4,-0.2 -0.5,-0.4 -1.2,-1.2 -1.8,-1.9 -0.5,-0.7 -1.1,-1.6 -1.4,-2.1 -0.3,-0.5 0,-1.1 0.1,-1.4 l 0.1,-0.1 0.4,-0.4 0,0 0,0 c 0.4,-0.3 0.8,-0.7 0.8,-1.1 0.1,-0.5 -0.3,-1.2 -1,-2.1 l -0.1,-0.1 c -0.4,-0.6 -1.1,-1.4 -2.1,-1.3 -0.4,0.1 -0.7,0.2 -1.1,0.4 l 0,0 0,0 -0.5,0.4 0,0 0,0 c -0.1,0 -0.1,0.1 -0.2,0.1 -0.5,0.4 -1.5,1.7 -0.8,4 0.5,1.5 1.4,3.3 2.8,5.1 l 0,0 0.7,0.9 0,0 c 1.5,1.7 3,3.1 4.3,3.9 0.9,0.5 1.7,0.7 2.4,0.7 0.9,0 1.5,-0.3 1.8,-0.5 l 0.2,-0.1 c 0,0 0,0 0.1,-0.1 l 0.4,-0.3 0,0 0,0 c 0.3,-0.3 0.5,-0.6 0.7,-0.9 0.6,-1 -0.1,-1.8 -0.5,-2.4 z"
     class="st2" /></svg>