<svg id="Layer_1" data-name="Layer 1" xmlns="http://www.w3.org/2000/svg" viewBox="0 0 66.5 24.8"><defs><style>.cls-1{fill:#2e3f43;}.cls-2{fill:#81a6b0;}</style></defs><title>VN</title><path id="path5" class="cls-1" d="M35.4,1.6c1.3,0.8,2.7,1.7,4,2.5S42,5.6,43.2,6.4C44.6,7.3,46,8.1,47.4,9c1.2,0.7,2.4,1.5,3.5,2.2,1.5,0.9,3.1,1.9,4.6,2.8,1.2,0.8,2.5,1.5,3.7,2.3s2.5,1.6,3.8,2.4c1,0.5,1.8,1.1,2.8,1.7,0.1,0.1.3,0.2,0.5,0.4-0.6,1-1.2,2-1.9,3-1.1-.7-2.2-1.2-3.2-1.9-1.4-1-2.9-1.8-4.4-2.8-2.1-1.4-4.2-2.7-6.3-4-2.3-1.5-4.6-2.9-7-4.3L37.8,7.2c-1.3-.8-2.7-1.6-3.9-2.5a1.35,1.35,0,0,0-1.7,0c-1.5,1.2-3.3,2.1-4.9,3.2-1.2.9-2.6,1.5-3.8,2.3s-2.7,1.6-4,2.5c-1.6,1-3.2,2.1-4.9,3-1.4.8-2.7,1.7-4.1,2.6C9.3,19,8.2,19.8,7,20.5c-0.7.4-1.3,0.8-1.9,1.2-0.9.6-1.9,1.1-2.9,1.7a16.32,16.32,0,0,1-1.7-2A1.51,1.51,0,0,0,.1,21H0v3.7H29.1V19.5a9.63,9.63,0,0,1,1.7,0h1.8v5.2h1.3V19.5a8.53,8.53,0,0,1,1.6,0h1.7v5.2H66.5V0H33.3a10.61,10.61,0,0,0,2.1,1.6h0ZM32.6,17.9H29.1V12.4a9.63,9.63,0,0,1,1.7,0h1.8v5.5Zm1.3,0V12.5h3.3v5.4H33.9Zm11.7-16h6.7v8.2c0,0.1-.1.1-0.1,0.2C50,8.9,47.8,7.4,45.6,6V1.9h0Z" transform="translate(0 0)"/><path id="path7" class="cls-1" d="M4.1,18.1c1.5-1,3.1-1.9,4.7-2.8a22,22,0,0,0,2.5-1.7l3.9-2.4c2.1-1.4,4.2-2.6,6.3-3.9,1.5-.9,3-1.9,4.6-2.8,1-.6,1.9-1.2,2.9-1.8l2.7-1.8A0.77,0.77,0,0,1,32,.7c0.2-.1.4-0.3,0.7-0.5H0.1V20.6h0V20.5c1.3-.7,2.6-1.6,4-2.4h0Z" transform="translate(0 0)"/><path id="path9" class="cls-2" d="M2.2,23.5c1-.6,2-1.1,2.9-1.7C5.7,21.4,6.3,21,7,20.6c1.2-.7,2.3-1.5,3.5-2.2,1.4-.9,2.7-1.7,4.1-2.6,1.6-1,3.3-2,4.9-3,1.3-.8,2.7-1.6,4-2.5S26.1,8.8,27.3,8c1.6-1.1,3.4-2,4.9-3.2a1.35,1.35,0,0,1,1.7,0c1.2,0.9,2.6,1.7,3.9,2.5l5.7,3.6c2.3,1.5,4.6,2.9,7,4.3,2.1,1.3,4.2,2.6,6.3,4,1.4,1,2.9,1.8,4.4,2.8a33.71,33.71,0,0,0,3.2,1.9c0.6-1,1.2-2,1.9-3-0.2-.1-0.3-0.3-0.5-0.4A26.06,26.06,0,0,0,63,18.8c-1.3-.7-2.6-1.6-3.8-2.4s-2.5-1.5-3.7-2.3c-1.5-.9-3.1-1.9-4.6-2.8-1.2-.7-2.4-1.5-3.5-2.2-1.4-.9-2.8-1.8-4.2-2.6S40.6,5,39.4,4.2s-2.7-1.7-4-2.5C34.7,1.3,34,.8,33.3.3A0.1,0.1,0,0,1,33.2.2H32.6c-0.3.2-.4,0.3-0.7,0.5a1.24,1.24,0,0,0-.3.2L28.9,2.7C28,3.3,27,3.9,26,4.5c-1.5.9-3.1,1.9-4.6,2.8l-6.3,3.9-3.9,2.4a22,22,0,0,0-2.5,1.7c-1.6,1-3.1,1.9-4.7,2.8-1.3.8-2.6,1.7-4,2.4V21H0a1.51,1.51,0,0,1,.4.4c0.7,0.7,1.1,1.5,1.8,2.1h0Z" transform="translate(0 0)"/><path id="path11" class="cls-2" d="M52.3,10.1V1.9H45.6V6c2.2,1.4,4.4,2.9,6.6,4.3a0.31,0.31,0,0,0,.1-0.2h0Z" transform="translate(0 0)"/><path id="path13" class="cls-2" d="M30.8,12.4a9.63,9.63,0,0,0-1.7,0v5.5h3.5V12.4H30.8Z" transform="translate(0 0)"/><path id="path15" class="cls-2" d="M30.8,19.6a9.63,9.63,0,0,0-1.7,0v5.2h3.5V19.6H30.8Z" transform="translate(0 0)"/><path id="path17" class="cls-2" d="M37.2,12.5H33.9v5.4h3.3V12.5Z" transform="translate(0 0)"/><path id="path19" class="cls-2" d="M35.5,19.6a8.55,8.55,0,0,0-1.6,0v5.2h3.3V19.6H35.5Z" transform="translate(0 0)"/></svg>