<?xml version="1.0" encoding="UTF-8" standalone="no"?>
<svg
   height="24.799999"
   width="66.5"
   xml:space="preserve"
   viewBox="0 0 66.5 24.799999"
   y="0px"
   x="0px"
   version="1.1">
  <g
     transform="translate(-437.1,-271.9)">
    <path
       style="fill:#ffffff"
       id="path5"
       d="m 472.5,273.5 c 1.3,0.8 2.7,1.7 4,2.5 1.3,0.8 2.6,1.5 3.8,2.3 1.4,0.9 2.8,1.7 4.2,2.6 1.2,0.7 2.4,1.5 3.5,2.2 1.5,0.9 3.1,1.9 4.6,2.8 1.2,0.8 2.5,1.5 3.7,2.3 1.3,0.8 2.5,1.6 3.8,2.4 1,0.5 1.8,1.1 2.8,1.7 0.1,0.1 0.3,0.2 0.5,0.4 -0.6,1 -1.2,2 -1.9,3 -1.1,-0.7 -2.2,-1.2 -3.2,-1.9 -1.4,-1 -2.9,-1.8 -4.4,-2.8 -2.1,-1.4 -4.2,-2.7 -6.3,-4 -2.3,-1.5 -4.6,-2.9 -7,-4.3 -1.9,-1.2 -3.8,-2.4 -5.7,-3.6 -1.3,-0.8 -2.7,-1.6 -3.9,-2.5 -0.5,-0.4 -1.2,-0.4 -1.7,0 -1.5,1.2 -3.3,2.1 -4.9,3.2 -1.2,0.9 -2.6,1.5 -3.8,2.3 -1.3,0.9 -2.7,1.6 -4,2.5 -1.6,1 -3.2,2.1 -4.9,3 -1.4,0.8 -2.7,1.7 -4.1,2.6 -1.2,0.7 -2.3,1.5 -3.5,2.2 -0.7,0.4 -1.3,0.8 -1.9,1.2 -0.9,0.6 -1.9,1.1 -2.9,1.7 -0.7,-0.5 -1.1,-1.4 -1.7,-2 -0.1,-0.2 -0.3,-0.3 -0.4,-0.4 0,0 0,0 -0.1,0 0,1.2 0,2.5 0,3.7 l 29.1,0 c 0,-1.7 0,-3.4 0,-5.2 0.5,-0.1 1.1,0 1.7,0 0.6,0 1.2,0 1.8,0 0,1.7 0,3.4 0,5.2 l 1.3,0 c 0,-1.7 0,-3.4 0,-5.2 0.5,-0.1 1,0 1.6,0 0.6,0 1.1,0 1.7,0 0,1.7 0,3.4 0,5.2 l 29.3,0 c 0,-8.2 0,-16.4 0,-24.7 -11.1,0 -22.1,0 -33.2,0 0.6,0.7 1.4,1.1 2.1,1.6 z m -2.8,16.3 c -1.2,0 -2.3,0 -3.5,0 0,-1.8 0,-3.6 0,-5.5 0.5,-0.1 1.1,0 1.7,0 0.6,0 1.2,0 1.8,0 0,1.8 0,3.6 0,5.5 z m 1.3,0 c 0,-1.8 0,-3.6 0,-5.4 1.1,0 2.1,0 3.3,0 0,0 0,0 0,0 0,0 0,0.1 0,0.1 0,1.8 0,3.5 0,5.3 -1.1,0 -2.2,0 -3.3,0 z m 11.7,-16 c 1.1,0 2.2,0 3.3,0 1.1,0 2.2,0 3.4,0 0,2.8 0,5.5 0,8.2 0,0.1 -0.1,0.1 -0.1,0.2 -2.2,-1.4 -4.4,-2.9 -6.6,-4.3 0,-1.4 0,-2.8 0,-4.1 z" />
    <path
       style="fill:#ffffff"
       id="path7"
       d="m 441.2,290 c 1.5,-1 3.1,-1.9 4.7,-2.8 0.9,-0.5 1.7,-1.1 2.5,-1.7 1.3,-0.8 2.6,-1.6 3.9,-2.4 2.1,-1.4 4.2,-2.6 6.3,-3.9 1.5,-0.9 3,-1.9 4.6,-2.8 1,-0.6 1.9,-1.2 2.9,-1.8 0.9,-0.6 1.8,-1.2 2.7,-1.8 0.1,-0.1 0.1,-0.1 0.3,-0.2 0.2,-0.1 0.4,-0.3 0.7,-0.5 -10.9,0 -21.7,0 -32.6,0 0,6.8 0,13.6 0,20.4 0,0 0,0 0,0 0,0 0,0 0,-0.1 1.3,-0.7 2.6,-1.6 4,-2.4 z" />
    <path
          style="fill:#81a6b0"
       id="path9"
       d="m 439.3,295.4 c 1,-0.6 2,-1.1 2.9,-1.7 0.6,-0.4 1.2,-0.8 1.9,-1.2 1.2,-0.7 2.3,-1.5 3.5,-2.2 1.4,-0.9 2.7,-1.7 4.1,-2.6 1.6,-1 3.3,-2 4.9,-3 1.3,-0.8 2.7,-1.6 4,-2.5 1.2,-0.8 2.6,-1.5 3.8,-2.3 1.6,-1.1 3.4,-2 4.9,-3.2 0.5,-0.4 1.2,-0.4 1.7,0 1.2,0.9 2.6,1.7 3.9,2.5 1.9,1.2 3.8,2.4 5.7,3.6 2.3,1.5 4.6,2.9 7,4.3 2.1,1.3 4.2,2.6 6.3,4 1.4,1 2.9,1.8 4.4,2.8 1,0.7 2.1,1.3 3.2,1.9 0.6,-1 1.2,-2 1.9,-3 -0.2,-0.1 -0.3,-0.3 -0.5,-0.4 -0.9,-0.6 -1.8,-1.2 -2.8,-1.7 -1.3,-0.7 -2.6,-1.6 -3.8,-2.4 -1.2,-0.8 -2.5,-1.5 -3.7,-2.3 -1.5,-0.9 -3.1,-1.9 -4.6,-2.8 -1.2,-0.7 -2.4,-1.5 -3.5,-2.2 -1.4,-0.9 -2.8,-1.8 -4.2,-2.6 -1.3,-0.8 -2.6,-1.5 -3.8,-2.3 -1.3,-0.8 -2.7,-1.7 -4,-2.5 -0.7,-0.4 -1.4,-0.9 -2.1,-1.4 0,0 -0.1,0 -0.1,-0.1 -0.2,0 -0.3,0 -0.5,0 0,0 0,0 -0.1,0 -0.3,0.2 -0.4,0.3 -0.7,0.5 -0.2,0.1 -0.3,0.2 -0.3,0.2 -0.9,0.6 -1.8,1.2 -2.7,1.8 -0.9,0.6 -1.9,1.2 -2.9,1.8 -1.5,0.9 -3.1,1.9 -4.6,2.8 -2.1,1.3 -4.2,2.6 -6.3,3.9 -1.3,0.8 -2.6,1.6 -3.9,2.4 -0.9,0.5 -1.7,1.1 -2.5,1.7 -1.6,1 -3.1,1.9 -4.7,2.8 -1.3,0.8 -2.6,1.7 -4,2.4 0,0 0,0 0,0.1 0,0.1 0,0.3 0,0.4 0,0 0,0 0,0 0.2,0.1 0.3,0.3 0.4,0.4 0.7,0.7 1.1,1.5 1.8,2.1 z" />
    <path
          style="fill:#81a6b0"
       id="path11"
       d="m 489.4,282 c 0,-2.7 0,-5.4 0,-8.2 -1.2,0 -2.3,0 -3.4,0 -1.1,0 -2.2,0 -3.3,0 0,1.4 0,2.7 0,4.1 2.2,1.4 4.4,2.9 6.6,4.3 0.1,-0.1 0.1,-0.2 0.1,-0.2 z" />
    <path
          style="fill:#81a6b0"
       id="path13"
       d="m 467.9,284.3 c -0.6,0 -1.2,-0.1 -1.7,0 0,1.9 0,3.7 0,5.5 1.2,0 2.3,0 3.5,0 0,-1.9 0,-3.7 0,-5.5 -0.6,0 -1.2,0 -1.8,0 z" />
    <path
          style="fill:#81a6b0"
       id="path15"
       d="m 467.9,291.5 c -0.6,0 -1.2,-0.1 -1.7,0 0,1.8 0,3.5 0,5.2 l 3.5,0 c 0,-1.8 0,-3.5 0,-5.2 -0.6,0 -1.2,0 -1.8,0 z" />
    <path
          style="fill:#81a6b0"
       id="path17"
       d="m 474.3,284.4 c 0,0 -0.1,-0.1 0,0 -1.2,0 -2.2,0 -3.3,0 0,1.8 0,3.6 0,5.4 1.2,0 2.2,0 3.3,0 0,-1.8 0,-3.5 0,-5.3 0,0 0,-0.1 0,-0.1 z" />
    <path
          style="fill:#81a6b0"
       id="path19"
       d="m 472.6,291.5 c -0.5,0 -1.1,-0.1 -1.6,0 0,1.8 0,3.5 0,5.2 l 3.3,0 c 0,-1.8 0,-3.5 0,-5.2 -0.6,0 -1.2,0 -1.7,0 z" /></g></svg>