<?xml version="1.0" encoding="UTF-8" standalone="no"?>
<!-- Created with Inkscape (http://www.inkscape.org/) -->

<svg
   xmlns:dc="http://purl.org/dc/elements/1.1/"
   xmlns:cc="http://creativecommons.org/ns#"
   xmlns:rdf="http://www.w3.org/1999/02/22-rdf-syntax-ns#"
   xmlns:svg="http://www.w3.org/2000/svg"
   xmlns="http://www.w3.org/2000/svg"
   xmlns:sodipodi="http://sodipodi.sourceforge.net/DTD/sodipodi-0.dtd"
   xmlns:inkscape="http://www.inkscape.org/namespaces/inkscape"
   width="1299.4695"
   height="501.52164"
   viewBox="0 0 1299.4695 501.52164"
   id="svg3356"
   version="1.1"
   inkscape:version="0.91 r13725"
   sodipodi:docname="drawing.svg">
  <defs
     id="defs3358" />
  <sodipodi:namedview
     id="base"
     pagecolor="#ffffff"
     bordercolor="#666666"
     borderopacity="1.0"
     inkscape:pageopacity="0.0"
     inkscape:pageshadow="2"
     inkscape:zoom="0.45254834"
     inkscape:cx="716.4052"
     inkscape:cy="-186.93839"
     inkscape:document-units="px"
     inkscape:current-layer="layer1"
     showgrid="false"
     inkscape:showpageshadow="false"
     showborder="false"
     units="px"
     fit-margin-top="10"
     fit-margin-right="10"
     fit-margin-bottom="10"
     fit-margin-left="10"
     inkscape:window-width="1920"
     inkscape:window-height="1027"
     inkscape:window-x="-8"
     inkscape:window-y="-8"
     inkscape:window-maximized="1" />
  <metadata
     id="metadata3361">
    <rdf:RDF>
      <cc:Work
         rdf:about="">
        <dc:format>image/svg+xml</dc:format>
        <dc:type
           rdf:resource="http://purl.org/dc/dcmitype/StillImage" />
        <dc:title></dc:title>
      </cc:Work>
    </rdf:RDF>
  </metadata>
  <g
     inkscape:label="Layer 1"
     inkscape:groupmode="layer"
     id="layer1"
     transform="translate(1221.5898,-201.66546)">
    <g
       id="g3419"
       style="fill:#ffffff">
      <g
         style="fill:#ffffff;stroke:none"
         transform="matrix(0.125,0,0,-0.125,-823.37038,652.86307)"
         id="g3366">
        <path
           inkscape:connector-curvature="0"
           d="m 186,2832 c -5,-9 -17,-343 -36,-1002 -14,-474 -27,-921 -40,-1344 -8,-282 -8,-351 2,-358 17,-10 135,-10 142,0 3,5 10,175 16,378 6,203 15,508 20,679 5,171 14,499 21,730 6,231 15,423 18,428 8,8 8,8 76,-278 25,-104 62,-255 81,-335 19,-80 42,-174 50,-210 8,-36 19,-81 24,-100 6,-19 28,-111 51,-205 22,-93 53,-226 70,-295 17,-69 41,-172 55,-230 14,-58 29,-121 35,-140 5,-19 21,-84 35,-145 14,-60 35,-147 46,-193 23,-92 29,-96 109,-90 l 44,3 27,110 c 15,61 55,223 88,360 34,138 85,349 115,470 30,121 67,276 84,345 140,581 220,906 231,934 9,26 17,-124 31,-634 5,-212 14,-522 19,-690 6,-168 13,-431 16,-585 4,-154 11,-288 16,-297 7,-14 22,-18 71,-18 35,0 67,4 72,9 6,6 7,99 3,243 -18,604 -42,1458 -58,2028 -7,249 -16,420 -22,428 -7,7 -37,12 -82,12 -43,0 -78,-5 -88,-12 -8,-7 -27,-65 -42,-128 -15,-63 -33,-142 -41,-175 -8,-33 -33,-136 -55,-230 -22,-93 -47,-198 -55,-232 -8,-35 -22,-91 -30,-125 -8,-35 -34,-146 -59,-248 -24,-102 -56,-237 -71,-300 -15,-63 -44,-187 -65,-275 -21,-88 -50,-209 -64,-270 C 977,551 946,425 943,421 c -9,-13 -25,43 -87,309 -15,63 -36,151 -46,195 -10,44 -33,141 -50,215 -18,74 -50,209 -71,300 -22,91 -46,192 -54,225 -14,60 -27,115 -85,365 -18,74 -50,209 -71,300 -43,180 -57,236 -90,380 -31,136 -26,130 -119,130 -43,0 -81,-4 -84,-8 z"
           id="path3368"
           style="fill:#ffffff" />
        <path
           inkscape:connector-curvature="0"
           d="m 3480,2829 c 0,-9 155,-314 236,-464 l 33,-60 71,0 71,0 53,100 c 53,102 133,252 192,361 18,34 30,64 27,68 -4,3 -36,6 -73,6 l -66,0 -97,-195 c -53,-107 -101,-195 -106,-195 -4,0 -52,88 -104,195 l -96,195 -71,0 c -43,0 -70,-4 -70,-11 z"
           id="path3370"
           style="fill:#ffffff" />
        <path
           inkscape:connector-curvature="0"
           d="m 5840,2833 c 0,-5 8,-24 18,-43 99,-188 138,-262 192,-367 l 64,-123 67,0 c 41,0 70,5 76,13 17,21 273,511 273,521 0,4 -33,6 -72,4 l -72,-3 -95,-192 c -53,-106 -100,-193 -106,-193 -6,0 -53,87 -105,193 l -95,192 -72,3 c -40,2 -73,-1 -73,-5 z"
           id="path3372"
           style="fill:#ffffff" />
        <path
           inkscape:connector-curvature="0"
           d="m 6957,2624 c -4,-4 -7,-74 -7,-156 l 0,-149 88,3 87,3 0,150 0,150 -80,3 c -45,1 -84,0 -88,-4 z"
           id="path3374"
           style="fill:#ffffff" />
        <path
           inkscape:connector-curvature="0"
           d="m 4706,2412 c -8,-13 -10,-97 -2,-110 10,-17 537,-17 554,0 16,16 16,90 0,106 -14,14 -543,18 -552,4 z"
           id="path3376"
           style="fill:#ffffff" />
        <path
           inkscape:connector-curvature="0"
           d="m 2478,2075 c -169,-46 -259,-172 -302,-420 -23,-132 -23,-972 0,-1107 29,-174 89,-302 170,-363 74,-57 140,-77 264,-82 184,-8 294,23 377,107 92,93 133,220 136,427 l 2,138 -85,0 -85,0 -5,-145 c -7,-178 -26,-251 -82,-315 -71,-81 -213,-109 -331,-65 -90,34 -140,98 -173,225 -20,75 -36,319 -32,500 l 3,160 389,3 c 297,2 392,5 398,15 11,17 10,248 -2,390 -27,326 -119,481 -315,533 -63,17 -264,17 -327,-1 z m 281,-132 c 142,-45 190,-176 191,-516 l 0,-177 -307,2 -308,3 2,164 c 4,303 46,442 152,505 66,38 185,47 270,19 z"
           id="path3378"
           style="fill:#ffffff" />
        <path
           inkscape:connector-curvature="0"
           d="m 4850,2076 c -200,-57 -288,-176 -311,-420 -8,-78 -7,-101 3,-108 7,-4 45,-8 83,-8 l 71,0 12,104 c 13,123 33,178 80,228 59,62 112,82 222,82 70,1 103,-4 125,-16 103,-56 145,-198 145,-494 l 0,-161 -202,-101 C 4853,1070 4746,1003 4654,917 4542,813 4505,733 4494,570 c -14,-201 64,-359 216,-437 51,-26 64,-28 170,-28 104,0 120,3 173,27 81,38 150,98 194,170 l 37,60 8,-29 c 4,-17 11,-68 15,-114 l 8,-84 75,-3 76,-3 -3,458 c -6,1007 -9,1100 -32,1186 -26,98 -45,141 -88,194 -39,49 -98,86 -169,108 -61,18 -259,19 -324,1 z m 430,-1255 0,-319 -40,-60 c -50,-75 -113,-133 -181,-168 -44,-22 -67,-27 -130,-27 -67,-1 -83,3 -130,30 -64,35 -113,107 -123,179 -15,111 -1,228 35,299 25,48 97,125 159,168 57,40 381,217 398,217 9,0 12,-70 12,-319 z"
           id="path3380"
           style="fill:#ffffff" />
        <path
           inkscape:connector-curvature="0"
           d="m 3454,2037 c -3,-13 -4,-41 -2,-63 l 3,-39 308,-3 c 252,-2 307,-5 307,-16 0,-13 -42,-115 -265,-646 -59,-140 -116,-277 -127,-305 -11,-27 -28,-68 -38,-90 -10,-22 -57,-134 -105,-250 -48,-116 -95,-228 -105,-250 -43,-96 -50,-121 -50,-181 l 0,-64 435,0 435,0 0,65 0,65 -330,0 c -268,0 -332,3 -336,13 -5,13 18,79 51,152 8,17 24,55 35,85 12,30 28,69 35,85 7,17 71,169 140,340 70,171 133,324 140,340 8,17 24,55 35,85 12,30 32,78 46,108 13,29 24,55 24,58 0,6 8,25 49,116 11,26 21,51 21,54 0,3 7,22 16,42 69,157 84,203 84,265 l 0,57 -400,0 -400,0 -6,-23 z"
           id="path3382"
           style="fill:#ffffff" />
        <path
           inkscape:connector-curvature="0"
           d="m 5820,1995 0,-65 304,0 c 168,0 307,-3 310,-8 2,-4 -11,-46 -31,-92 -58,-140 -164,-393 -178,-425 -7,-16 -52,-124 -100,-240 -48,-115 -95,-228 -105,-250 -10,-22 -57,-134 -105,-250 -98,-238 -104,-251 -136,-320 -16,-36 -24,-74 -27,-132 l -4,-83 431,0 431,0 0,65 0,65 -330,0 c -286,0 -331,2 -336,15 -4,8 -2,21 3,28 5,6 18,35 28,62 10,28 28,73 40,100 12,28 32,77 45,110 13,33 26,65 30,70 4,6 15,33 25,60 10,28 31,78 47,113 15,34 28,65 28,67 0,5 68,169 95,230 7,17 23,55 34,85 22,57 25,63 60,142 12,26 21,50 21,53 0,4 9,25 19,48 10,23 61,143 112,267 81,196 93,233 93,285 l 1,60 -402,3 -403,2 0,-65 z"
           id="path3384"
           style="fill:#ffffff" />
        <path
           inkscape:connector-curvature="0"
           d="m 6950,1095 0,-965 90,0 90,0 -2,963 -3,962 -87,3 -88,3 0,-966 z"
           id="path3386"
           style="fill:#ffffff" />
      </g>
      <g
         style="fill:#ffffff;stroke:none"
         transform="matrix(0.25716992,0,0,-0.29317021,-1299.0276,706.64153)"
         id="g3407">
        <path
           style="fill:#ffffff"
           inkscape:connector-curvature="0"
           d="m 1070,1679 c -111,-19 -220,-87 -235,-148 -5,-20 -1,-31 23,-51 16,-14 37,-30 48,-36 17,-10 11,-15 -50,-45 -84,-41 -155,-103 -181,-159 -17,-35 -24,-40 -45,-37 -224,39 -227,39 -259,22 -26,-13 -31,-21 -31,-53 0,-20 8,-53 18,-72 43,-80 342,-303 342,-254 0,3 -8,24 -19,47 -10,23 -22,57 -26,75 -6,31 -6,33 13,23 20,-11 88,-89 217,-251 75,-95 106,-123 215,-198 41,-28 92,-69 114,-91 l 39,-40 -26,-43 C 1192,308 1100,224 1043,199 957,162 840,177 763,236 611,352 582,504 679,672 c 22,38 35,68 29,68 -26,0 -81,-36 -106,-69 C 561,617 543,571 535,499 518,334 622,149 775,75 828,49 846,46 930,46 c 66,-1 112,5 150,18 125,42 240,135 331,269 68,99 71,109 59,232 -5,48 -4,50 27,65 18,8 31,20 30,25 -1,6 -34,26 -73,46 -203,103 -342,236 -379,364 -19,63 -10,96 49,184 24,36 60,99 80,140 32,63 43,75 77,89 26,10 39,21 39,34 0,20 23,18 86,-7 132,-54 204,-248 148,-400 -35,-95 -138,-169 -278,-200 -27,-6 -28,-7 -12,-23 25,-26 137,-22 199,5 196,89 291,369 191,565 -87,171 -336,268 -584,227 z"
           id="path3409" />
      </g>
    </g>
  </g>
</svg>
