<?xml version="1.0" encoding="UTF-8" standalone="no"?>
<svg xmlns:dc="http://purl.org/dc/elements/1.1/" xmlns:cc="http://creativecommons.org/ns#" xmlns:rdf="http://www.w3.org/1999/02/22-rdf-syntax-ns#" xmlns:svg="http://www.w3.org/2000/svg" xmlns="http://www.w3.org/2000/svg" xmlns:sodipodi="http://sodipodi.sourceforge.net/DTD/sodipodi-0.dtd" xmlns:inkscape="http://www.inkscape.org/namespaces/inkscape" version="1.1" x="0px" y="0px" viewBox="0 0 1000 1000" enable-background="new 0 0 1000 1000" xml:space="preserve" id="svg2" inkscape:version="0.91 r13725" sodipodi:docname="arrow.svg"><metadata
     id="metadata16"><rdf:RDF><cc:Work
         rdf:about=""><dc:format>image/svg+xml</dc:format><dc:type
           rdf:resource="http://purl.org/dc/dcmitype/StillImage" /></cc:Work></rdf:RDF></metadata><defs
     id="defs14" /><sodipodi:namedview
     pagecolor="#ffffff"
     bordercolor="#666666"
     borderopacity="1"
     objecttolerance="10"
     gridtolerance="10"
     guidetolerance="10"
     inkscape:pageopacity="0"
     inkscape:pageshadow="2"
     inkscape:window-width="1920"
     inkscape:window-height="1027"
     id="namedview12"
     showgrid="false"
     inkscape:zoom="0.236"
     inkscape:cx="618.64407"
     inkscape:cy="500"
     inkscape:window-x="-8"
     inkscape:window-y="-8"
     inkscape:window-maximized="1"
 inkscape:current-layer="svg2" />
<g id="g4" style="fill:#2e3f43;fill-opacity:1">
  <path d="M990,503.4c0,25.9-21,46.9-46.9,46.9H56.9c-25.9,0-46.9-21-46.9-46.9v-4.6c0-25.9,21-46.9,46.9-46.9h886.1c25.9,0,46.9,21,46.9,46.9V503.4z" id="path6" style="fill:#2e3f43;fill-opacity:1" />
  <path d="M430.9,131.1c18.3,18.3,18.3,48.1,0,66.4L93.1,535.2c-18.3,18.3-48.1,18.3-66.4,0l-2.9-2.9C5.5,514,5.5,484.3,23.9,466l337.7-337.7c18.3-18.3,48.1-18.3,66.4,0L430.9,131.1z" id="path8" style="fill:#2e3f43;fill-opacity:1" />
  <path d="M430.9,868.9c18.3-18.3,18.3-48.1,0-66.4L93.1,464.8c-18.3-18.3-48.1-18.3-66.4,0l-2.9,2.9C5.5,486,5.5,515.7,23.9,534l337.7,337.7c18.3,18.3,48.1,18.3,66.4,0L430.9,868.9z" id="path10" style="fill:#2e3f43;fill-opacity:1" />
</g>
</svg>
