<?xml version="1.0" standalone="no"?>
<!DOCTYPE svg PUBLIC "-//W3C//DTD SVG 20010904//EN"
 "http://www.w3.org/TR/2001/REC-SVG-20010904/DTD/svg10.dtd">
<svg version="1.0" xmlns="http://www.w3.org/2000/svg"
 width="98.000000pt" height="100.000000pt" viewBox="0 0 98.000000 100.000000"
 preserveAspectRatio="xMidYMid meet">
<metadata>
Created by potrace 1.13, written by Peter Selinger 2001-2015
</metadata>
<g transform="translate(0.000000,100.000000) scale(0.100000,-0.100000)"
fill="#ff0000" stroke="none">
<path d="M450 960 c-46 -8 -59 -17 -71 -47 -11 -28 7 -124 50 -268 16 -52 27
-95 25 -95 -2 0 -57 35 -121 78 -65 42 -137 86 -160 96 -40 18 -44 18 -69 2
-33 -23 -64 -90 -64 -143 0 -77 40 -90 292 -96 59 -1 104 -5 100 -8 -4 -4 -52
-43 -107 -87 -129 -102 -167 -143 -167 -177 0 -35 30 -75 78 -102 52 -30 89
-29 118 2 22 24 77 153 114 271 9 29 19 54 22 54 3 0 16 -33 29 -73 37 -111
99 -251 118 -265 43 -32 149 16 181 82 11 22 11 33 1 57 -11 28 -120 126 -223
200 -25 18 -46 35 -46 38 0 3 46 7 103 9 250 6 293 21 290 100 -2 51 -30 110
-64 135 l-27 19 -54 -25 c-30 -13 -103 -57 -161 -96 -59 -39 -108 -71 -111
-71 -2 0 9 42 25 93 37 120 62 242 54 267 -13 41 -83 63 -155 50z"/>
</g>
</svg>
