<?xml version="1.0" encoding="UTF-8" standalone="no"?>
<svg
   xmlns:dc="http://purl.org/dc/elements/1.1/"
   xmlns:cc="http://creativecommons.org/ns#"
   xmlns:rdf="http://www.w3.org/1999/02/22-rdf-syntax-ns#"
   xmlns:svg="http://www.w3.org/2000/svg"
   xmlns="http://www.w3.org/2000/svg"
   version="1.1"
   id="svg3356"
   viewBox="0 0 2964.5767 757.00318"
   height="757.00317"
   width="2964.5767">
  <defs
     id="defs3358" />
  <metadata
     id="metadata3361">
    <rdf:RDF>
      <cc:Work
         rdf:about="">
        <dc:format>image/svg+xml</dc:format>
        <dc:type
           rdf:resource="http://purl.org/dc/dcmitype/StillImage" />
        <dc:title></dc:title>
      </cc:Work>
    </rdf:RDF>
  </metadata>
  <g
     style="fill:#ffffff"
     id="g4168"
     transform="translate(-198.07588,-442.65237)">
    <g
       style="fill:#ffffff;fill-opacity:1;stroke:none"
       transform="matrix(0.3972317,0,0,-0.46089472,56.04161,1203.4559)"
       id="g3407">
      <path
         style="fill:#ffffff;fill-opacity:1"
         d="m 1087.5603,1641.3527 c -111.00004,-19 -220.00004,-87 -235.00004,-148 -5,-20 -1,-31 23,-51 16,-14 37,-30 48,-36 17,-10 11,-15 -50,-45 -84,-41 -155,-103 -181,-159 -17,-35 -24,-40 -45,-37 -224,39 -227,39 -259,22 -26,-13 -31,-21 -31,-53 0,-20 8,-53 18,-72 43,-80.00003 342,-302.99999 342,-253.99999 0,3 -8,24 -19,47 -10,23 -22,57 -26,75 -6,30.99996 -6,32.99996 13,22.99996 20,-10.99996 88,-88.99996 217,-250.99996 75,-95 106.00004,-123 215.00004,-198 41,-28 92,-69 114,-91 l 39,-40 -26,-43 c -35,-60 -127,-144 -184,-169 -86.00004,-37 -203.00004,-22 -280.00004,37 -152,116 -181,268 -84,436 22,38 35,68 29,68 -26,0 -81,-36 -106,-69 -41,-54 -59,-100 -67,-172 -17,-165 87,-350 240,-424.000004 53,-26 71,-28.9999996 155,-28.9999996 66.00004,-1 112.00004,4.9999996 150.00004,17.9999996 125,42.000005 240,135.000004 331,269.000004 68,99 71,109 59,232 -5,48 -4,50 27,65 18,8 31,20 30,25 -1,6 -34,26 -73,46 -203,103 -342,236 -379,363.99999 -19,63 -10,96 49,184 24,36 60,99 80,140 32,63 43,75 77,89 26,10 39,21 39,34 0,20 23,18 86,-7 132,-54 204,-248 148,-400 -35,-95.00003 -138,-168.99999 -278,-199.99999 -27,-6 -28,-7 -12,-23 25,-26 137,-22 199,5 196,89 291,368.99999 191,564.99999 -87,171 -336,268 -584,227 z"
         id="path3409" />
    </g>
    <g
       style="fill:#ffffff;fill-opacity:1;stroke:none"
       transform="matrix(0.125,0,0,-0.125,885.15249,1084.2423)"
       id="g4180">
      <path
         style="fill:#ffffff;fill-opacity:1"
         d="m 8033,4299 c -7,-7 -8,-20 -3,-33 18,-47 304,-523 331,-551 l 29,-30 219,0 c 204,0 220,1 241,20 18,16 296,469 339,553 25,47 6,52 -188,52 -146,0 -181,-3 -199,-16 -14,-9 -57,-86 -104,-185 -45,-93 -84,-169 -87,-169 -4,0 -45,77 -91,171 -47,94 -94,177 -105,185 -25,18 -365,20 -382,3 z"
         id="path4182" />
      <path
         style="fill:#ffffff;fill-opacity:1"
         d="m 14770,4295 c -14,-17 -14,-17 195,-370 62,-104 125,-201 140,-215 26,-25 28,-25 233,-28 191,-2 209,-1 238,17 23,14 74,90 187,278 191,320 181,301 166,319 -9,11 -47,14 -189,14 -160,0 -180,-2 -202,-19 -14,-11 -58,-89 -103,-185 -43,-91 -81,-166 -85,-166 -3,0 -44,77 -90,171 -47,94 -94,177 -105,185 -30,21 -367,20 -385,-1 z"
         id="path4184" />
      <path
         style="fill:#ffffff;fill-opacity:1"
         d="m 11373,4215 c -24,-10 -34,-23 -42,-52 -14,-49 -14,-247 0,-295 19,-69 7,-68 572,-68 326,0 515,4 534,10 49,18 58,47 58,199 0,167 -5,188 -50,207 -50,20 -1024,20 -1072,-1 z"
         id="path4186" />
      <path
         style="fill:#ffffff;fill-opacity:1"
         d="m 224,3348 c -12,-5 -27,-21 -33,-34 -8,-18 -11,-448 -11,-1540 l 0,-1516 29,-29 29,-29 252,0 251,0 24,25 25,24 0,1196 c 0,754 4,1195 10,1195 10,0 2,24 310,-970 210,-681 222,-717 255,-747 l 35,-33 244,0 c 267,0 284,3 315,54 10,17 123,375 251,796 128,421 241,793 252,828 10,34 23,62 28,62 6,0 10,-429 10,-1169 0,-829 3,-1177 11,-1200 20,-57 42,-61 304,-61 l 237,0 29,29 29,29 0,1517 c 0,1134 -3,1522 -12,1538 -24,47 -21,46 -449,47 -386,0 -408,-1 -430,-19 -20,-16 -70,-171 -290,-898 -198,-653 -270,-879 -282,-881 -12,-2 -20,11 -32,50 -8,29 -127,423 -263,875 -177,588 -253,829 -269,847 l -23,26 -407,-1 c -259,0 -416,-4 -429,-11 z"
         id="path4188" />
      <path
         style="fill:#ffffff;fill-opacity:1"
         d="m 4503,3336 -28,-24 -3,-1511 c -2,-1648 -5,-1569 53,-1591 39,-15 1676,-14 1708,1 14,6 30,22 36,36 16,35 14,433 -2,454 -29,38 -42,39 -592,39 -351,0 -543,4 -556,10 -18,10 -19,25 -19,383 0,277 3,376 12,385 9,9 122,12 448,12 270,0 449,4 472,11 63,17 68,38 68,264 0,198 -4,225 -39,252 -12,9 -127,12 -461,13 -338,0 -451,3 -470,13 l -25,13 -3,348 c -1,245 1,353 9,362 9,11 116,14 566,16 l 555,3 24,28 c 24,28 24,30 24,243 0,215 0,215 -25,239 l -24,25 -850,0 -850,0 -28,-24 z"
         id="path4190" />
      <path
         style="fill:#ffffff;fill-opacity:1"
         d="m 7583,3336 -28,-24 -3,-214 c -4,-251 3,-286 58,-305 26,-9 196,-12 628,-12 386,-1 592,-4 592,-11 0,-5 -295,-445 -656,-977 -361,-533 -665,-987 -676,-1010 -10,-23 -23,-82 -29,-130 -12,-93 -8,-376 6,-406 21,-48 -2,-47 1039,-47 l 975,0 28,24 28,24 3,233 c 3,249 0,267 -45,288 -17,8 -216,11 -665,11 -553,0 -639,2 -635,14 3,8 284,419 623,913 366,531 628,922 644,958 24,59 25,66 28,334 2,151 1,285 -3,298 -3,12 -15,32 -27,43 -22,20 -31,20 -939,20 l -918,0 -28,-24 z"
         id="path4192" />
      <path
         style="fill:#ffffff;fill-opacity:1"
         d="m 11503,3340 c -18,-10 -39,-30 -47,-43 -15,-21 -806,-3011 -806,-3043 0,-8 9,-23 20,-34 19,-19 33,-20 289,-20 266,0 270,0 296,23 21,19 35,60 91,282 36,143 70,277 75,298 l 10,37 481,-2 481,-3 76,-298 c 64,-249 80,-302 100,-318 22,-18 43,-19 296,-19 251,0 273,1 288,18 10,10 17,29 17,41 0,26 -776,2983 -795,3028 -8,18 -29,42 -47,53 -32,19 -49,20 -413,20 -359,0 -382,-1 -412,-20 z m 599,-1287 176,-703 -365,0 c -342,0 -364,1 -359,18 3,9 82,325 176,701 94,376 173,688 177,694 3,5 9,5 13,0 4,-4 86,-324 182,-710 z"
         id="path4194" />
      <path
         style="fill:#ffffff;fill-opacity:1"
         d="m 14323,3336 -28,-24 -3,-220 c -4,-259 2,-284 65,-301 25,-7 241,-11 626,-11 340,0 587,-4 587,-9 0,-5 -295,-444 -655,-976 -361,-532 -664,-984 -675,-1005 -10,-21 -24,-66 -30,-101 -13,-83 -13,-373 1,-421 19,-72 -44,-68 1043,-68 l 975,0 28,24 28,24 3,228 c 3,244 -1,273 -44,293 -18,8 -211,11 -666,11 -590,0 -640,1 -634,16 4,9 284,420 623,913 358,520 628,921 642,956 25,59 26,66 29,334 2,151 1,284 -2,297 -4,13 -16,33 -28,44 -22,20 -31,20 -939,20 l -918,0 -28,-24 z"
         id="path4196" />
      <path
         style="fill:#ffffff;fill-opacity:1"
         d="m 17625,3336 c -16,-16 -25,-40 -30,-77 -9,-82 -1,-2991 9,-3012 20,-42 52,-47 311,-47 l 247,0 29,29 29,29 0,1516 c 0,1089 -3,1522 -11,1539 -20,43 -45,47 -310,47 -249,0 -250,0 -274,-24 z"
         id="path4198" />
    </g>
  </g>
</svg>
