<?xml version="1.0" encoding="UTF-8" standalone="no"?>
<!-- Generator: Adobe Illustrator 19.0.0, SVG Export Plug-In . SVG Version: 6.00 Build 0)  -->

<svg
   xmlns:dc="http://purl.org/dc/elements/1.1/"
   xmlns:cc="http://creativecommons.org/ns#"
   xmlns:rdf="http://www.w3.org/1999/02/22-rdf-syntax-ns#"
   xmlns:svg="http://www.w3.org/2000/svg"
   xmlns="http://www.w3.org/2000/svg"
   xmlns:sodipodi="http://sodipodi.sourceforge.net/DTD/sodipodi-0.dtd"
   xmlns:inkscape="http://www.inkscape.org/namespaces/inkscape"
   version="1.1"
   id="Layer_1"
   x="0px"
   y="0px"
   viewBox="0 0 55 52.700001"
   xml:space="preserve"
   inkscape:version="0.91 r13725"
   sodipodi:docname="ok.svg"
   width="55"
   height="52.700001"><metadata
     id="metadata11"><rdf:RDF><cc:Work
         rdf:about=""><dc:format>image/svg+xml</dc:format><dc:type
           rdf:resource="http://purl.org/dc/dcmitype/StillImage" /><dc:title></dc:title></cc:Work></rdf:RDF></metadata><defs
     id="defs9" /><sodipodi:namedview
     pagecolor="#ffffff"
     bordercolor="#666666"
     borderopacity="1"
     objecttolerance="10"
     gridtolerance="10"
     guidetolerance="10"
     inkscape:pageopacity="0"
     inkscape:pageshadow="2"
     inkscape:window-width="640"
     inkscape:window-height="480"
     id="namedview7"
     showgrid="false"
     fit-margin-top="0"
     fit-margin-left="0"
     fit-margin-right="0"
     fit-margin-bottom="0"
     inkscape:zoom="2.4583333"
     inkscape:cx="27.5"
     inkscape:cy="26.3"
     inkscape:window-x="0"
     inkscape:window-y="0"
     inkscape:window-maximized="0"
     inkscape:current-layer="Layer_1" /><style
     type="text/css"
     id="style3">
	.st0{fill:#34a589;}
</style><g
     id="XMLID_2_"
     transform="translate(-20.5,-21.6)"><path
       id="XMLID_7_"
       class="st0"
       d="m 29.3,63.4 c 0,-0.6 -0.2,-1.1 -0.7,-1.5 -0.4,-0.4 -1,-0.7 -1.5,-0.7 -0.6,0 -1.1,0.2 -1.6,0.7 -0.4,0.4 -0.6,1 -0.6,1.5 0,0.6 0.2,1.1 0.6,1.6 0.4,0.4 0.9,0.6 1.6,0.6 0.6,0 1.1,-0.2 1.5,-0.6 0.5,-0.5 0.7,-1 0.7,-1.6 z m 5.5,-17.6 0,22 c 0,0.6 -0.2,1.1 -0.7,1.5 -0.4,0.4 -1,0.7 -1.5,0.7 l -9.9,0 c -0.6,0 -1.1,-0.2 -1.5,-0.7 -0.4,-0.4 -0.7,-1 -0.7,-1.5 l 0,-22 c 0,-0.6 0.2,-1.1 0.7,-1.5 0.4,-0.4 1,-0.7 1.5,-0.7 l 9.9,0 c 0.6,0 1.1,0.2 1.5,0.7 0.5,0.4 0.7,0.9 0.7,1.5 z m 40.7,0 c 0,2 -0.6,3.7 -1.9,5.1 0.3,1 0.5,1.9 0.5,2.6 0.1,1.7 -0.4,3.3 -1.5,4.7 0.4,1.3 0.4,2.6 0,4 -0.3,1.3 -1,2.4 -1.9,3.2 0.2,2.6 -0.4,4.6 -1.7,6.2 -1.5,1.7 -3.7,2.6 -6.8,2.7 l -4.4,0 c -1.5,0 -3.2,-0.2 -5,-0.5 -1.8,-0.4 -3.2,-0.7 -4.2,-1 -1,-0.3 -2.4,-0.8 -4.1,-1.4 -2.8,-1 -4.6,-1.5 -5.4,-1.5 -0.6,0 -1.1,-0.2 -1.5,-0.7 C 37.2,68.7 37,68.4 37,67.8 l 0,-22 c 0,-0.6 0.2,-1.1 0.6,-1.5 0.4,-0.4 0.9,-0.7 1.5,-0.7 0.5,0 1.4,-0.7 2.6,-2 1.2,-1.3 2.3,-2.7 3.5,-4.2 1.6,-2 2.7,-3.4 3.5,-4.1 0.4,-0.4 0.8,-1 1.1,-1.6 0.3,-0.7 0.5,-1.2 0.6,-1.7 0.1,-0.5 0.3,-1.1 0.5,-2.1 0.2,-0.9 0.3,-1.6 0.4,-2.1 0.1,-0.5 0.3,-1.1 0.7,-1.8 0.3,-0.7 0.7,-1.3 1.2,-1.7 0.4,-0.4 1,-0.7 1.5,-0.7 1.1,0 2,0.1 2.8,0.4 0.8,0.2 1.5,0.5 2.1,0.9 0.5,0.4 1,0.8 1.4,1.4 0.4,0.6 0.7,1.1 0.8,1.5 0.2,0.5 0.3,1 0.4,1.7 0.1,0.7 0.2,1.2 0.2,1.5 0,0.3 0,0.8 0,1.3 0,0.9 -0.1,1.7 -0.3,2.6 -0.2,0.9 -0.4,1.6 -0.7,2.1 -0.3,0.5 -0.5,1.1 -0.9,1.9 -0.1,0.1 -0.2,0.3 -0.3,0.6 -0.2,0.3 -0.3,0.5 -0.4,0.8 -0.1,0.2 -0.2,0.5 -0.3,0.8 l 9.5,0 c 1.8,0 3.3,0.7 4.6,2 1.2,1.4 1.9,2.9 1.9,4.7 z"
       inkscape:connector-curvature="0"
       style="fill:#34a589" /></g></svg>